<svg width="42" height="38" viewBox="0 0 42 38" fill="none" xmlns="http://www.w3.org/2000/svg"><mask id="path-1-outside-1" maskUnits="userSpaceOnUse" x="0" y="1" width="42" height="36" fill="#000"><path fill="#fff" d="M0 1h42v36H0z"/><path fill-rule="evenodd" clip-rule="evenodd" d="M12.333 26a4 4 0 100-8 4 4 0 000 8zm0-6.666a2.667 2.667 0 110 5.333 2.667 2.667 0 010-5.334z"/><path d="M19 18h14a.667.667 0 110 1.334H19a.66.66 0 01-.379-.12A.666.666 0 0119 18zm14 3.334H19a.667.667 0 100 1.332h14a.667.667 0 100-1.332zm-14 3.332h14A.667.667 0 0133 26H19a.667.667 0 110-1.334zM33 28H9a.667.667 0 100 1.334h24A.667.667 0 0033 28zM9 31.334h24a.667.667 0 110 1.332H9a.667.667 0 110-1.332z"/><path fill-rule="evenodd" clip-rule="evenodd" d="M10.333 2a2.003 2.003 0 00-2 2v4a2.003 2.003 0 00-2 2v4a2.003 2.003 0 00-2 2v18.666H1.667a.667.667 0 100 1.334h38.666a.667.667 0 100-1.334h-2.666V16a2.002 2.002 0 00-2-2v-4a2.002 2.002 0 00-2-2V4a2.002 2.002 0 00-2-2H10.333zm-.666 2c0-.368.298-.667.666-.667h21.334c.368 0 .666.299.666.667v4H18.266a3.333 3.333 0 00-6.532 0H9.667V4zm3.456 4a1.988 1.988 0 013.754 0h-3.754zM7.945 9.458L8 9.422a.663.663 0 01.333-.088h25.334c.368 0 .666.298.666.666v4H16.266a3.333 3.333 0 00-6.532 0H7.667v-4c0-.045.005-.089.014-.131a.665.665 0 01.265-.411zm3.413 4.076A1.985 1.985 0 0113 12.667c.846 0 1.599.535 1.877 1.333h-3.754c.059-.168.138-.324.235-.466zm24.975 21.133H5.667V16c0-.368.298-.666.666-.666h29.334c.368 0 .666.298.666.666v18.666z"/></mask><path fill-rule="evenodd" clip-rule="evenodd" d="M12.333 26a4 4 0 100-8 4 4 0 000 8zm0-6.666a2.667 2.667 0 110 5.333 2.667 2.667 0 010-5.334z" fill="#00B4E3"/><path d="M19 18h14a.667.667 0 110 1.334H19a.66.66 0 01-.379-.12A.666.666 0 0119 18zm14 3.334H19a.667.667 0 100 1.332h14a.667.667 0 100-1.332zm-14 3.332h14A.667.667 0 0133 26H19a.667.667 0 110-1.334zM33 28H9a.667.667 0 100 1.334h24A.667.667 0 0033 28zM9 31.334h24a.667.667 0 110 1.332H9a.667.667 0 110-1.332z" fill="#00B4E3"/><path fill-rule="evenodd" clip-rule="evenodd" d="M10.333 2a2.003 2.003 0 00-2 2v4a2.003 2.003 0 00-2 2v4a2.003 2.003 0 00-2 2v18.666H1.667a.667.667 0 100 1.334h38.666a.667.667 0 100-1.334h-2.666V16a2.002 2.002 0 00-2-2v-4a2.002 2.002 0 00-2-2V4a2.002 2.002 0 00-2-2H10.333zm-.666 2c0-.368.298-.667.666-.667h21.334c.368 0 .666.299.666.667v4H18.266a3.333 3.333 0 00-6.532 0H9.667V4zm3.456 4a1.988 1.988 0 013.754 0h-3.754zM7.945 9.458L8 9.422a.663.663 0 01.333-.088h25.334c.368 0 .666.298.666.666v4H16.266a3.333 3.333 0 00-6.532 0H7.667v-4c0-.045.005-.089.014-.131a.665.665 0 01.265-.411zm3.413 4.076A1.985 1.985 0 0113 12.667c.846 0 1.599.535 1.877 1.333h-3.754c.059-.168.138-.324.235-.466zm24.975 21.133H5.667V16c0-.368.298-.666.666-.666h29.334c.368 0 .666.298.666.666v18.666z" fill="#00B4E3"/><path clip-rule="evenodd" d="M12.333 26a4 4 0 100-8 4 4 0 000 8zm0-6.666a2.667 2.667 0 110 5.333 2.667 2.667 0 010-5.334z" stroke="#00B4E3" stroke-width=".4" mask="url(#path-1-outside-1)"/><path d="M19 18h14a.667.667 0 110 1.334H19a.66.66 0 01-.379-.12A.666.666 0 0119 18zm14 3.334H19a.667.667 0 100 1.332h14a.667.667 0 100-1.332zm-14 3.332h14A.667.667 0 0133 26H19a.667.667 0 110-1.334zM33 28H9a.667.667 0 100 1.334h24A.667.667 0 0033 28zM9 31.334h24a.667.667 0 110 1.332H9a.667.667 0 110-1.332z" stroke="#00B4E3" stroke-width=".4" mask="url(#path-1-outside-1)"/><path clip-rule="evenodd" d="M10.333 2a2.003 2.003 0 00-2 2v4a2.003 2.003 0 00-2 2v4a2.003 2.003 0 00-2 2v18.666H1.667a.667.667 0 100 1.334h38.666a.667.667 0 100-1.334h-2.666V16a2.002 2.002 0 00-2-2v-4a2.002 2.002 0 00-2-2V4a2.002 2.002 0 00-2-2H10.333zm-.666 2c0-.368.298-.667.666-.667h21.334c.368 0 .666.299.666.667v4H18.266a3.333 3.333 0 00-6.532 0H9.667V4zm3.456 4a1.988 1.988 0 013.754 0h-3.754zM7.945 9.458L8 9.422a.663.663 0 01.333-.088h25.334c.368 0 .666.298.666.666v4H16.266a3.333 3.333 0 00-6.532 0H7.667v-4c0-.045.005-.089.014-.131a.665.665 0 01.265-.411zm3.413 4.076A1.985 1.985 0 0113 12.667c.846 0 1.599.535 1.877 1.333h-3.754c.059-.168.138-.324.235-.466zm24.975 21.133H5.667V16c0-.368.298-.666.666-.666h29.334c.368 0 .666.298.666.666v18.666z" stroke="#00B4E3" stroke-width=".4" mask="url(#path-1-outside-1)"/></svg>