<svg width="22" height="22" viewBox="0 0 22 22" fill="none" xmlns="http://www.w3.org/2000/svg"><path d="M17.012 22c-.215 0-.428-.025-.637-.072a21.44 21.44 0 01-10.583-5.697A21.436 21.436 0 01.062 5.65c-.103-.501-.077-1.02.073-1.509.15-.488.421-.928.787-1.278L3.468.356A1.269 1.269 0 014.45.004c.185.02.364.081.523.179.16.098.296.23.4.388l3.184 4.812a1.06 1.06 0 01-.07 1.237L6.888 8.573a12.335 12.335 0 002.655 3.836 12.251 12.251 0 003.865 2.663l1.98-1.608a1.03 1.03 0 011.184-.079l4.807 3.178c.165.1.306.238.412.402a1.32 1.32 0 01-.15 1.623l-2.484 2.513a3.013 3.013 0 01-.985.669 2.962 2.962 0 01-1.16.23zM4.347 1.294L1.8 3.8a1.66 1.66 0 00-.44.716 1.69 1.69 0 00-.037.846A20.12 20.12 0 006.677 15.3a20.168 20.168 0 009.959 5.359c.283.06.577.048.855-.036.278-.084.531-.238.737-.446l2.483-2.514-4.642-3.066-2.126 1.731a.63.63 0 01-.586.111 12.746 12.746 0 01-4.687-3.093 12.709 12.709 0 01-3.1-4.688.665.665 0 01.152-.618l1.72-2.104-3.095-4.642z" fill="#00B4E3"/></svg>